# xmcd
#
# Track frame offsets:
#	150
#	18152
#	33736
#	47950
#	61845
#	78489
#	92476
#	112035
#	131866
#	147142
#	166711
#	176063
#	195510
#	212779
#	230659
#	242799
#	263146
#	277137
#	294441
#	311379
#	324549
#	339208
#
# Disc length: 4733 seconds
#
# Revision: 0
# Processed by: cddbd v1.5.2PL0 Copyright (c) Steve Scherf et al.
# Submitted via: EasyCDDAExtractor 8.1.4.1
#
DISCID=41127b16
DTITLE=Various Artist - Country
DYEAR=1900
DGENRE=Country
TTITLE0=Alan Jackson - Chattahoochee [Extended Mix]
TTITLE1=Tanya Tucker - Come in Out of the World
TTITLE2=Karen Staley - Fearless
TTITLE3=Marty Stuart - Honky Tonkin's What I Do Best
TTITLE4=Waylon Jennings - Lonesome On'ry and Mean
TTITLE5=David Allan Coe - She Used to Love Me a Lot
TTITLE6=Gary Allan - Smoke Rings in the Dark
TTITLE7=Alan Jackson - Murder on Music Row
TTITLE8=Carlene Carter - Baby Ride Easy
TTITLE9=Dallas Wayne - Hoedown in Hell
TTITLE10=J.J. Cale - Devil in Disguise
TTITLE11=Billy Joe Shaver - If I Give My Soul
TTITLE12=Mary Chapin Carpenter - The Bug
TTITLE13=Heather Myles - True Love
TTITLE14=Various Artist - You Asked Me To
TTITLE15=Dwight Yoakam - A Thousand Miles from Nowhere
TTITLE16=Mark Chesnutt - Brother Jukebox
TTITLE17=Tom Russell - The Next Thing Smokin'
TTITLE18=Garth Brooks - The Thunder Rolls
TTITLE19=Dale Watson And His Lone Stars - Johnny At The Door
TTITLE20=Lee Clayton - Saturday Night Special
TTITLE21=Brooks and Dunn - Days of Thunder
EXTD=
EXTT0=
EXTT1=
EXTT2=
EXTT3=
EXTT4=
EXTT5=
EXTT6=
EXTT7=
EXTT8=
EXTT9=
EXTT10=
EXTT11=
EXTT12=
EXTT13=
EXTT14=
EXTT15=
EXTT16=
EXTT17=
EXTT18=
EXTT19=
EXTT20=
EXTT21=
PLAYORDER=
